<svg width="14" height="11" viewBox="0 0 14 11" fill="none" xmlns="http://www.w3.org/2000/svg">
<path d="M8.56888 0.151654C8.33583 -0.0576233 7.96629 -0.0493732 7.74433 0.17063C7.52208 0.390633 7.53142 0.738787 7.76446 0.94834L12.2392 4.94992H0.583333C0.261333 4.94992 0 5.19632 0 5.49993C0 5.80353 0.261333 6.04993 0.583333 6.04993H12.2205L7.76446 10.0518C7.53112 10.2613 7.52208 10.6095 7.74433 10.8295C7.85896 10.9428 8.01267 11 8.16667 11C8.31133 11 8.456 10.9497 8.56888 10.8482L13.6582 6.27764C13.8787 6.07001 14 5.79391 14 5.49993C14 5.20595 13.8787 4.92984 13.648 4.71287L8.56888 0.151654Z" fill="#0075FF"/>
</svg>
