<svg width="16" height="16" viewBox="0 0 16 16" fill="none" xmlns="http://www.w3.org/2000/svg">
<path d="M8 0C3.58866 0 0 3.58866 0 8C0 12.4113 3.58866 16 8 16C12.4113 16 16 12.4113 16 8C16 3.58866 12.4113 0 8 0ZM10.4713 8.47134L7.138 11.8047C7.008 11.9347 6.83734 12 6.66666 12C6.496 12 6.32531 11.9347 6.19531 11.8047C5.93466 11.544 5.93466 11.1227 6.19531 10.862L9.05734 8L6.19534 5.138C5.93469 4.87734 5.93469 4.456 6.19534 4.19534C6.456 3.93469 6.87734 3.93469 7.138 4.19534L10.4713 7.52869C10.732 7.78934 10.732 8.21066 10.4713 8.47134Z" fill="#0864B2"/>
</svg>
