<svg width="8" height="8" viewBox="0 0 8 8" fill="none" xmlns="http://www.w3.org/2000/svg">
<path d="M6.79204 7.87984C6.95225 8.04005 7.21199 8.04005 7.3722 7.87984L7.80732 7.44472C7.96753 7.28451 7.96753 7.02477 7.80732 6.86456L1.13544 0.192676C0.975234 0.0324683 0.715486 0.0324683 0.555278 0.192676L0.120156 0.627799C-0.0400519 0.788007 -0.0400519 1.04775 0.120156 1.20796L6.79204 7.87984Z" fill="#272A3D"/>
<path d="M7.87984 1.13544C8.04005 0.975234 8.04005 0.715486 7.87984 0.555278L7.44472 0.120156C7.28451 -0.0400515 7.02477 -0.0400515 6.86456 0.120156L0.192677 6.79204C0.0324689 6.95225 0.0324688 7.21199 0.192677 7.3722L0.627799 7.80732C0.788007 7.96753 1.04776 7.96753 1.20796 7.80732L7.87984 1.13544Z" fill="#272A3D"/>
</svg>
