<svg width="22" height="22" viewBox="0 0 22 22" fill="none" xmlns="http://www.w3.org/2000/svg">
<path d="M9.53912 0.67144C10.3073 -0.223813 11.6927 -0.223813 12.4609 0.67144L13.7259 2.14572C14.1251 2.61099 14.7221 2.85826 15.3334 2.81157L17.2704 2.66361C18.4466 2.57376 19.4262 3.55338 19.3364 4.7296L19.1884 6.66659C19.1417 7.27788 19.389 7.87486 19.8543 8.27409L21.3286 9.53912C22.2238 10.3073 22.2238 11.6927 21.3286 12.4609L19.8543 13.7259C19.389 14.1251 19.1417 14.7221 19.1884 15.3334L19.3364 17.2704C19.4262 18.4466 18.4466 19.4262 17.2704 19.3364L15.3334 19.1884C14.7221 19.1417 14.1251 19.389 13.7259 19.8543L12.4609 21.3286C11.6927 22.2238 10.3073 22.2238 9.53912 21.3286L8.27409 19.8543C7.87486 19.389 7.27788 19.1417 6.66659 19.1884L4.72961 19.3364C3.55338 19.4262 2.57376 18.4466 2.66361 17.2704L2.81157 15.3334C2.85826 14.7221 2.61099 14.1251 2.14572 13.7259L0.67144 12.4609C-0.223813 11.6927 -0.223813 10.3073 0.67144 9.53912L2.14572 8.27409C2.61099 7.87486 2.85826 7.27788 2.81157 6.66659L2.66361 4.72961C2.57376 3.55338 3.55338 2.57376 4.72961 2.66361L6.66659 2.81157C7.27788 2.85826 7.87486 2.61099 8.27409 2.14572L9.53912 0.67144Z" fill="url(#paint0_linear_1127_14832)"/>
<path d="M3.99976 11.5002C3.99976 7.91039 7.13376 5.00024 10.9998 5.00024C14.8657 5.00024 17.9998 7.91039 17.9998 11.5002C17.9998 15.0901 14.8657 18.0002 10.9998 18.0002C7.13376 18.0002 3.99976 15.0901 3.99976 11.5002Z" fill="#499BE7"/>
<path d="M3.99976 11.0002C3.99976 7.13425 7.13376 4.00024 10.9998 4.00024C14.8657 4.00024 17.9998 7.13425 17.9998 11.0002C17.9998 14.8662 14.8657 18.0002 10.9998 18.0002C7.13376 18.0002 3.99976 14.8662 3.99976 11.0002Z" fill="url(#paint1_linear_1127_14832)"/>
<path d="M3.99976 13.0002C5.0388 15.9193 7.74254 18.0002 10.9142 18.0002C12.8862 18.0002 14.6772 17.196 15.9998 15.8859C14.6991 16.5634 13.2307 16.9445 11.6766 16.9445C8.54654 16.9445 5.76429 15.3979 3.99976 13.0002Z" fill="#C9C3F7"/>
<path d="M6.64044 9.49556C5.66088 9.34121 4.74167 10.0102 4.58732 10.9897C4.74167 10.0102 4.07271 9.09095 3.09316 8.9366C4.07271 9.09095 4.99193 8.42198 5.14628 7.44244C4.99193 8.42198 5.66088 9.34121 6.64044 9.49556Z" fill="white"/>
<path d="M9.16821 17.0635C8.50384 17.4076 8.24421 18.2252 8.5883 18.8895C8.24421 18.2252 7.42668 17.9655 6.76231 18.3096C7.42668 17.9655 7.68631 17.148 7.34222 16.4836C7.68631 17.148 8.50384 17.4076 9.16821 17.0635Z" fill="white"/>
<path d="M19.4078 12.2141C18.3933 12.0543 17.4413 12.7471 17.2814 13.7616C17.4413 12.7471 16.7484 11.7951 15.7339 11.6352C16.7484 11.7951 17.7005 11.1022 17.8603 10.0877C17.7005 11.1022 18.3933 12.0543 19.4078 12.2141Z" fill="white"/>
<path d="M18.0983 4.76409C16.7388 5.18728 15.9797 6.63245 16.4029 7.99194C15.9797 6.63245 14.5346 5.8734 13.1751 6.29659C14.5346 5.8734 15.2936 4.42823 14.8704 3.06874C15.2936 4.42823 16.7388 5.18728 18.0983 4.76409Z" fill="white"/>
<path d="M15.7805 10.261L11.8132 15.5847C11.7173 15.714 11.5941 15.8187 11.453 15.8907C11.312 15.9628 11.1569 16.0002 10.9998 16.0002C10.8426 16.0002 10.6875 15.9628 10.5465 15.8907C10.4054 15.8187 10.2822 15.714 10.1863 15.5847L6.21904 10.261C6.06409 10.0534 5.98682 9.79451 6.00153 9.53232C6.01624 9.27012 6.12193 9.02234 6.29905 8.83483L7.75927 7.3187C7.95384 7.11643 8.21739 7.002 8.49271 7.00024H13.5068C13.7821 7.002 14.0457 7.11643 14.2402 7.3187L15.7005 8.83483C15.8776 9.02234 15.9833 9.27012 15.998 9.53232C16.0127 9.79451 15.9354 10.0534 15.7805 10.261Z" fill="url(#paint2_linear_1127_14832)"/>
<path fill-rule="evenodd" clip-rule="evenodd" d="M11.3553 15.2936C11.3057 15.3604 11.246 15.4091 11.1846 15.4405C11.1237 15.4716 11.0607 15.486 10.9998 15.486C10.9389 15.486 10.8758 15.4716 10.8149 15.4405C10.7535 15.4091 10.6938 15.3604 10.6443 15.2936L10.6436 15.2927L6.6761 9.96861C6.59387 9.85843 6.54771 9.71271 6.55634 9.55899C6.56491 9.40612 6.62615 9.27058 6.71583 9.1749L8.17417 7.66071C8.27114 7.5599 8.38808 7.51561 8.49506 7.51453H13.5045C13.6114 7.51561 13.7284 7.5599 13.8253 7.66071L15.2837 9.17492C15.3734 9.2706 15.4346 9.40613 15.4432 9.55899C15.4518 9.71271 15.4056 9.85843 15.3234 9.96861L15.7805 10.261C15.9354 10.0534 16.0127 9.79451 15.998 9.53232C15.9833 9.27012 15.8776 9.02234 15.7005 8.83483L14.2402 7.3187C14.0457 7.11643 13.7821 7.002 13.5068 7.00024H8.49271C8.21739 7.002 7.95384 7.11643 7.75927 7.3187L6.29905 8.83483C6.12193 9.02234 6.01624 9.27012 6.00153 9.53232C5.98682 9.79451 6.06409 10.0534 6.21904 10.261L10.1863 15.5847C10.2822 15.714 10.4054 15.8187 10.5465 15.8907C10.6875 15.9628 10.8426 16.0002 10.9998 16.0002C11.1569 16.0002 11.312 15.9628 11.453 15.8907C11.5941 15.8187 11.7173 15.714 11.8132 15.5847L15.7805 10.261L15.3232 9.96893L11.3553 15.2936Z" fill="white"/>
<defs>
<linearGradient id="paint0_linear_1127_14832" x1="11" y1="0" x2="11" y2="22" gradientUnits="userSpaceOnUse">
<stop stop-color="#716EFA"/>
<stop offset="1" stop-color="#67C3F7"/>
</linearGradient>
<linearGradient id="paint1_linear_1127_14832" x1="10.9998" y1="4.00024" x2="10.9998" y2="18.0002" gradientUnits="userSpaceOnUse">
<stop stop-color="#F4F4F8"/>
<stop offset="1" stop-color="#D4D0F7"/>
</linearGradient>
<linearGradient id="paint2_linear_1127_14832" x1="10.9998" y1="7.00024" x2="10.9998" y2="16.0002" gradientUnits="userSpaceOnUse">
<stop stop-color="#68A1F7"/>
<stop offset="0.921875" stop-color="#3E35BC"/>
</linearGradient>
</defs>
</svg>
