<svg width="207" height="34" viewBox="0 0 207 34" fill="none" xmlns="http://www.w3.org/2000/svg">
<path d="M25 8.00012H29.9882C31.3843 8.00012 32.6393 8.21747 33.7529 8.65218C34.8666 9.08688 35.8078 9.68459 36.5765 10.4453C37.3607 11.2061 37.9569 12.1065 38.3647 13.1467C38.7882 14.1714 39 15.2892 39 16.5001C39 17.7111 38.7725 18.8366 38.3176 19.8768C37.8784 20.9171 37.2588 21.8174 36.4588 22.5782C35.6746 23.3234 34.7334 23.9133 33.6353 24.3481C32.5529 24.7828 31.3687 25.0001 30.0824 25.0001H25V8.00012ZM27.5647 10.3289V22.6481H29.8235C30.8118 22.6481 31.7059 22.4928 32.5059 22.1823C33.3216 21.8719 34.0196 21.4448 34.6 20.9015C35.1804 20.3426 35.6275 19.6905 35.9412 18.9453C36.2549 18.1846 36.4118 17.3695 36.4118 16.5001C36.4118 15.6152 36.2628 14.7924 35.9647 14.0316C35.6824 13.2709 35.2588 12.6188 34.6941 12.0755C34.1294 11.5321 33.4313 11.1051 32.6 10.7946C31.7687 10.4841 30.8118 10.3289 29.7294 10.3289H27.5647Z" fill="#A5CEFF"/>
<path d="M46.5 25.0001C45.5902 25.0001 44.742 24.8305 43.9555 24.4912C43.169 24.1519 42.4829 23.6893 41.8968 23.1033C41.3108 22.5174 40.8482 21.8311 40.5089 21.0446C40.1697 20.2581 40 19.4099 40 18.5001C40 17.6057 40.1697 16.7652 40.5089 15.9788C40.8482 15.1769 41.3108 14.4829 41.8968 13.8969C42.4829 13.3109 43.169 12.8483 43.9555 12.509C44.742 12.1698 45.5902 12.0001 46.5 12.0001C47.3945 12.0001 48.2349 12.1698 49.0214 12.509C49.8233 12.8483 50.5172 13.3109 51.1032 13.8969C51.6893 14.4829 52.1519 15.1769 52.4911 15.9788C52.8304 16.7652 53 17.6057 53 18.5001C53 19.4099 52.8304 20.2581 52.4911 21.0446C52.1519 21.8311 51.6893 22.5174 51.1032 23.1033C50.5172 23.6893 49.8233 24.1519 49.0214 24.4912C48.2349 24.8305 47.3945 25.0001 46.5 25.0001ZM46.5 22.6638C47.0706 22.6638 47.595 22.5558 48.073 22.34C48.5665 22.1241 48.9906 21.8311 49.3452 21.461C49.7153 21.0754 50.0007 20.6359 50.2011 20.1425C50.417 19.6336 50.5249 19.0861 50.5249 18.5001C50.5249 17.9295 50.417 17.3898 50.2011 16.8809C50.0007 16.372 49.7153 15.9325 49.3452 15.5624C48.9906 15.1769 48.5665 14.8762 48.073 14.6603C47.5795 14.4444 47.0552 14.3364 46.5 14.3364C45.9295 14.3364 45.3975 14.4444 44.9039 14.6603C44.4259 14.8762 44.0018 15.1769 43.6317 15.5624C43.277 15.9325 42.9994 16.372 42.7989 16.8809C42.5985 17.3898 42.4982 17.9295 42.4982 18.5001C42.4982 19.0861 42.5985 19.6336 42.7989 20.1425C42.9994 20.6359 43.277 21.0754 43.6317 21.461C44.0018 21.8311 44.4259 22.1241 44.9039 22.34C45.3975 22.5558 45.9295 22.6638 46.5 22.6638Z" fill="#A5CEFF"/>
<path d="M61.2773 25.0001C60.39 25.0001 59.562 24.8305 58.793 24.4912C58.024 24.1519 57.3586 23.6893 56.7967 23.1033C56.2348 22.5174 55.7912 21.8311 55.4658 21.0446C55.1553 20.2581 55 19.4099 55 18.5001C55 17.5749 55.1626 16.719 55.488 15.9325C55.8133 15.146 56.257 14.4598 56.8189 13.8738C57.3807 13.2878 58.0388 12.8329 58.793 12.509C59.562 12.1698 60.3827 12.0001 61.2551 12.0001C61.9205 12.0001 62.5416 12.0926 63.1183 12.2777C63.7098 12.4628 64.2495 12.7249 64.7375 13.0642C65.2255 13.4034 65.6543 13.8121 66.024 14.2902C66.4085 14.7528 66.7116 15.2617 66.9335 15.8168L64.7819 16.7884C64.4714 16.0173 64.0055 15.4159 63.3845 14.9841C62.7782 14.5523 62.0684 14.3364 61.2551 14.3364C60.6932 14.3364 60.1756 14.4444 59.7024 14.6603C59.2292 14.8762 58.8152 15.1769 58.4603 15.5624C58.1202 15.9325 57.8465 16.372 57.6396 16.8809C57.4473 17.3898 57.3512 17.9295 57.3512 18.5001C57.3512 19.0707 57.4473 19.6104 57.6396 20.1193C57.8465 20.6282 58.1275 21.0754 58.4824 21.461C58.8373 21.8311 59.2514 22.1241 59.7246 22.34C60.2126 22.5558 60.7376 22.6638 61.2994 22.6638C62.1572 22.6638 62.8817 22.4248 63.4732 21.9467C64.0794 21.4533 64.5305 20.8441 64.8262 20.1193L67 21.0677C66.5268 22.2243 65.8022 23.1727 64.8262 23.9129C63.8503 24.6377 62.6673 25.0001 61.2773 25.0001Z" fill="#A5CEFF"/>
<path d="M68 12.2963H70.4694V9.59387L72.9154 8.00012V12.2963H76.4001V14.5368H72.9154V20.6808C72.9154 21.3738 73.0616 21.8743 73.354 22.1822C73.6616 22.4901 74.0616 22.6441 74.5538 22.6441C75.0308 22.6441 75.4538 22.4825 75.8231 22.1591L77 24.2379C76.6462 24.4843 76.2462 24.6691 75.8 24.7922C75.3693 24.9308 74.8923 25.0001 74.3694 25.0001C73.1232 25.0001 72.1616 24.6691 71.4847 24.0069C70.8077 23.3447 70.4694 22.2438 70.4694 20.7039V14.5368H68V12.2963Z" fill="#A5CEFF"/>
<path d="M83.5 25.0001C82.5902 25.0001 81.742 24.8305 80.9555 24.4912C80.169 24.1519 79.4829 23.6893 78.8968 23.1033C78.3108 22.5174 77.8482 21.8311 77.5089 21.0446C77.1697 20.2581 77 19.4099 77 18.5001C77 17.6057 77.1697 16.7652 77.5089 15.9788C77.8482 15.1769 78.3108 14.4829 78.8968 13.8969C79.4829 13.3109 80.169 12.8483 80.9555 12.509C81.742 12.1698 82.5902 12.0001 83.5 12.0001C84.3945 12.0001 85.2349 12.1698 86.0213 12.509C86.8233 12.8483 87.5172 13.3109 88.1032 13.8969C88.6893 14.4829 89.1519 15.1769 89.4911 15.9788C89.8304 16.7652 90 17.6057 90 18.5001C90 19.4099 89.8304 20.2581 89.4911 21.0446C89.1519 21.8311 88.6893 22.5174 88.1032 23.1033C87.5172 23.6893 86.8233 24.1519 86.0213 24.4912C85.2349 24.8305 84.3945 25.0001 83.5 25.0001ZM83.5 22.6638C84.0706 22.6638 84.595 22.5558 85.073 22.34C85.5665 22.1241 85.9906 21.8311 86.3452 21.461C86.7153 21.0754 87.0007 20.6359 87.2011 20.1425C87.417 19.6336 87.5249 19.0861 87.5249 18.5001C87.5249 17.9295 87.417 17.3898 87.2011 16.8809C87.0007 16.372 86.7153 15.9325 86.3452 15.5624C85.9906 15.1769 85.5665 14.8762 85.073 14.6603C84.5795 14.4444 84.0552 14.3364 83.5 14.3364C82.9295 14.3364 82.3975 14.4444 81.9039 14.6603C81.4259 14.8762 81.0018 15.1769 80.6317 15.5624C80.277 15.9325 79.9995 16.372 79.7989 16.8809C79.5985 17.3898 79.4982 17.9295 79.4982 18.5001C79.4982 19.0861 79.5985 19.6336 79.7989 20.1425C79.9995 20.6359 80.277 21.0754 80.6317 21.461C81.0018 21.8311 81.4259 22.1241 81.9039 22.34C82.3975 22.5558 82.9295 22.6638 83.5 22.6638Z" fill="#A5CEFF"/>
<path d="M92 12.1899H94.4651V14.4198C94.7286 13.6133 95.1628 13.0123 95.7674 12.6169C96.3721 12.2057 97.0775 12.0001 97.8837 12.0001C98.3177 12.0001 98.7131 12.0476 99.0698 12.1425C99.4419 12.2215 99.7519 12.3401 100 12.4983L99.0233 14.9655C98.6512 14.7124 98.124 14.5859 97.4419 14.5859C96.5426 14.5859 95.8294 14.831 95.3023 15.3213C94.7752 15.8116 94.5116 16.6339 94.5116 17.7884V25.0001H92V12.1899Z" fill="#A5CEFF"/>
<path d="M107 8.00012H109.486L114.965 15.6851L120.629 8.00012H123V25.0001H120.537V11.9823L114.919 19.6207L109.486 12.1453V25.0001H107V8.00012Z" fill="#A5CEFF"/>
<path d="M131.269 25.0001C130.451 25.0001 129.665 24.8459 128.909 24.5375C128.154 24.2291 127.483 23.7896 126.897 23.219C126.327 22.6484 125.864 21.9622 125.509 21.1603C125.17 20.3583 125 19.4717 125 18.5001C125 17.5131 125.17 16.6265 125.509 15.84C125.849 15.0381 126.303 14.3518 126.874 13.7813C127.46 13.2107 128.13 12.7712 128.885 12.4628C129.657 12.1543 130.459 12.0001 131.292 12.0001C132.125 12.0001 132.919 12.1775 133.674 12.5322C134.445 12.8868 135.07 13.3726 135.548 13.9894V12.2546H138V24.7457H135.548V22.9183C135.054 23.566 134.423 24.0749 133.651 24.445C132.896 24.8151 132.102 25.0001 131.269 25.0001ZM131.592 22.7101C132.178 22.7101 132.718 22.6021 133.211 22.3862C133.721 22.1549 134.152 21.8542 134.507 21.4841C134.877 21.0985 135.162 20.6514 135.362 20.1425C135.579 19.6181 135.687 19.063 135.687 18.477C135.687 17.9064 135.579 17.3667 135.362 16.8578C135.162 16.3335 134.877 15.8862 134.507 15.5161C134.152 15.1306 133.721 14.8299 133.211 14.614C132.718 14.3827 132.178 14.267 131.592 14.267C131.006 14.267 130.459 14.375 129.95 14.5909C129.457 14.8068 129.024 15.1075 128.654 15.493C128.285 15.8631 127.991 16.3103 127.776 16.8346C127.576 17.3435 127.476 17.891 127.476 18.477C127.476 19.063 127.576 19.6181 127.776 20.1425C127.991 20.6514 128.285 21.0985 128.654 21.4841C129.024 21.8697 129.457 22.1704 129.95 22.3862C130.459 22.6021 131.006 22.7101 131.592 22.7101Z" fill="#A5CEFF"/>
<path d="M141 12.2597H143.332V14.0292C143.743 13.4157 144.263 12.9281 144.893 12.5664C145.54 12.1889 146.28 12.0001 147.116 12.0001C147.863 12.0001 148.538 12.1338 149.14 12.4012C149.756 12.6529 150.27 13.0225 150.68 13.5101C151.105 13.982 151.428 14.5718 151.648 15.2796C151.883 15.9717 152 16.7503 152 17.6154V25.0001H149.602V17.8041C149.602 16.7188 149.345 15.8537 148.832 15.2088C148.318 14.5639 147.563 14.2415 146.566 14.2415C146.111 14.2415 145.686 14.328 145.29 14.501C144.908 14.674 144.571 14.9257 144.278 15.256C144 15.5706 143.78 15.9638 143.618 16.4357C143.456 16.8918 143.376 17.403 143.376 17.9693V25.0001H141V12.2597Z" fill="#A5CEFF"/>
<path d="M160.268 25.0001C159.452 25.0001 158.664 24.8459 157.909 24.5375C157.153 24.2291 156.482 23.7896 155.896 23.219C155.326 22.6484 154.863 21.9622 154.508 21.1603C154.169 20.3583 154 19.4717 154 18.5001C154 17.5131 154.169 16.6265 154.508 15.84C154.847 15.0381 155.302 14.3518 155.873 13.7813C156.459 13.2107 157.131 12.7712 157.886 12.4628C158.657 12.1543 159.458 12.0001 160.291 12.0001C161.124 12.0001 161.919 12.1775 162.675 12.5322C163.446 12.8868 164.071 13.3726 164.548 13.9894V12.2546H167V24.7457H164.548V22.9183C164.055 23.566 163.422 24.0749 162.652 24.445C161.895 24.8151 161.101 25.0001 160.268 25.0001ZM160.593 22.7101C161.179 22.7101 161.718 22.6021 162.212 22.3862C162.72 22.1549 163.153 21.8542 163.507 21.4841C163.877 21.0985 164.163 20.6514 164.363 20.1425C164.579 19.6181 164.687 19.063 164.687 18.477C164.687 17.9064 164.579 17.3667 164.363 16.8578C164.163 16.3335 163.877 15.8862 163.507 15.5161C163.153 15.1306 162.72 14.8299 162.212 14.614C161.718 14.3827 161.179 14.267 160.593 14.267C160.007 14.267 159.458 14.375 158.95 14.5909C158.456 14.8068 158.025 15.1075 157.655 15.493C157.284 15.8631 156.992 16.3103 156.776 16.8346C156.575 17.3435 156.474 17.891 156.474 18.477C156.474 19.063 156.575 19.6181 156.776 20.1425C156.992 20.6514 157.284 21.0985 157.655 21.4841C158.025 21.8697 158.456 22.1704 158.95 22.3862C159.458 22.6021 160.007 22.7101 160.593 22.7101Z" fill="#A5CEFF"/>
<path d="M175.247 25.0194C174.432 25.0194 173.649 24.8649 172.895 24.5561C172.143 24.2473 171.473 23.8071 170.891 23.2356C170.321 22.6642 169.86 21.977 169.508 21.1739C169.168 20.3707 169 19.4827 169 18.5098C169 17.5213 169.168 16.6333 169.508 15.8457C169.846 15.0426 170.299 14.3553 170.867 13.7839C171.451 13.2125 172.12 12.7723 172.872 12.4634C173.641 12.1546 174.44 12.0001 175.27 12.0001C176.099 12.0001 176.89 12.1855 177.644 12.5561C178.412 12.9113 179.035 13.4132 179.511 14.0619V12.2549H182V23.7685C182 24.6951 181.832 25.5368 181.494 26.2936C181.17 27.0657 180.717 27.7222 180.133 28.2627C179.564 28.8187 178.888 29.2433 178.105 29.5368C177.337 29.8456 176.507 30.0001 175.616 30.0001C174.11 30.0001 172.864 29.7761 171.881 29.3283C170.913 28.8805 170.09 28.2318 169.414 27.3824L171.42 25.7376C171.912 26.4171 172.473 26.9114 173.102 27.2202C173.733 27.5445 174.555 27.7067 175.569 27.7067C176.169 27.7067 176.706 27.614 177.183 27.4287C177.675 27.2434 178.089 26.9809 178.427 26.641C178.781 26.3012 179.05 25.8921 179.234 25.4132C179.433 24.9499 179.534 24.4326 179.534 23.8611V22.8882C179.058 23.5523 178.435 24.0773 177.667 24.4634C176.898 24.8341 176.091 25.0194 175.247 25.0194ZM175.569 22.726C176.153 22.726 176.691 22.6178 177.183 22.4017C177.69 22.17 178.12 21.8688 178.474 21.4982C178.843 21.112 179.127 20.6642 179.326 20.1546C179.541 19.6294 179.65 19.0734 179.65 18.4866C179.65 17.9151 179.541 17.3746 179.326 16.865C179.127 16.3399 178.843 15.892 178.474 15.5214C178.12 15.1353 177.69 14.8341 177.183 14.6179C176.691 14.3862 176.153 14.2704 175.569 14.2704C174.985 14.2704 174.44 14.3785 173.932 14.5947C173.44 14.8109 173.01 15.1121 172.641 15.4982C172.274 15.8688 171.981 16.3167 171.766 16.8418C171.567 17.3515 171.467 17.8998 171.467 18.4866C171.467 19.0734 171.567 19.6294 171.766 20.1546C171.981 20.6642 172.274 21.112 172.641 21.4982C173.01 21.8843 173.44 22.1855 173.932 22.4017C174.44 22.6178 174.985 22.726 175.569 22.726Z" fill="#A5CEFF"/>
<path d="M190.686 25.0001C189.677 25.0001 188.76 24.8382 187.937 24.5144C187.13 24.175 186.431 23.7202 185.84 23.1496C185.25 22.5636 184.792 21.8773 184.466 21.0909C184.154 20.3044 184 19.4562 184 18.5464C184 17.6211 184.162 16.7652 184.49 15.9788C184.831 15.1769 185.297 14.4829 185.887 13.8969C186.478 13.3109 187.169 12.8483 187.961 12.509C188.753 12.1698 189.615 12.0001 190.547 12.0001C191.479 12.0001 192.332 12.162 193.11 12.4859C193.902 12.7943 194.585 13.2338 195.16 13.8044C195.734 14.375 196.185 15.0535 196.51 15.84C196.838 16.611 197 17.4592 197 18.3845V19.4254H186.423C186.609 20.4432 187.075 21.2605 187.821 21.8773C188.567 22.4788 189.521 22.7795 190.686 22.7795C191.572 22.7795 192.309 22.5944 192.899 22.2243C193.505 21.8542 193.995 21.3684 194.368 20.767L196.441 21.993C195.835 22.9028 195.067 23.6354 194.135 24.1905C193.203 24.7302 192.054 25.0001 190.686 25.0001ZM190.547 14.1976C189.537 14.1976 188.675 14.4906 187.961 15.0766C187.246 15.6472 186.764 16.3874 186.516 17.2973H194.461C194.275 16.3103 193.831 15.547 193.132 15.0072C192.449 14.4675 191.588 14.1976 190.547 14.1976Z" fill="#A5CEFF"/>
<path d="M199 12.1899H201.465V14.4198C201.728 13.6133 202.163 13.0123 202.767 12.6169C203.372 12.2057 204.077 12.0001 204.883 12.0001C205.318 12.0001 205.713 12.0476 206.07 12.1425C206.442 12.2215 206.752 12.3401 207 12.4983L206.023 14.9655C205.652 14.7124 205.124 14.5859 204.442 14.5859C203.543 14.5859 202.829 14.831 202.302 15.3213C201.775 15.8116 201.511 16.6339 201.511 17.7884V25.0001H199V12.1899Z" fill="#A5CEFF"/>
<path d="M5.93244 4.375C6.60886 3.95973 7.06001 3.2132 7.06001 2.3613C7.06001 1.05726 6.00288 0.00012207 4.69884 0.00012207C3.39479 0.00012207 2.33765 1.05726 2.33765 2.3613C2.33765 3.1552 2.72947 3.85759 3.33028 4.28565C3.3665 6.32547 4.45422 8.10872 6.07447 9.11642L0.287556 22.5976C-0.285649 23.9373 0.0140309 25.4909 1.04438 26.5213L6.62519 32.102C8.01757 33.4945 10.275 33.4945 11.6674 32.102L17.2482 26.5213C18.2786 25.4909 18.5783 23.9373 18.005 22.5976L15.1683 16.0779C15.4063 15.7093 15.5445 15.2703 15.5445 14.7989C15.5445 13.4948 14.4873 12.4377 13.1833 12.4377C11.8793 12.4377 10.8221 13.4948 10.8221 14.7989C10.8221 15.9717 11.6772 16.9447 12.798 17.1287L15.6171 23.6193C15.7727 23.9831 15.6914 24.405 15.4116 24.6847L9.83084 30.2655C9.45277 30.6435 8.83982 30.6435 8.46176 30.2655L2.88095 24.6847C2.60118 24.405 2.51981 23.9831 2.67545 23.6193L8.52266 9.95678C8.72481 9.97806 8.93005 9.98896 9.13785 9.98896C12.3106 9.98896 14.8893 7.44507 14.9454 4.28565C15.5463 3.8576 15.938 3.1552 15.938 2.3613C15.938 1.05726 14.8809 0.00012207 13.5768 0.00012207C12.2728 0.00012207 11.2157 1.05726 11.2157 2.3613C11.2157 3.2132 11.6668 3.95973 12.3432 4.375C12.2427 6.05791 10.846 7.39167 9.13785 7.39167C7.42966 7.39167 6.033 6.05792 5.93244 4.375Z" fill="#A5CEFF"/>
</svg>
