<svg width="20" height="20" viewBox="0 0 20 20" fill="none" xmlns="http://www.w3.org/2000/svg">
<path d="M18.3833 0.000252878C18.3132 -0.00421135 13.4369 0.0519104 13.4369 0.0519104C12.5675 0.0627521 11.8721 0.927537 11.884 1.81401C11.8947 2.69218 12.5982 3.53465 13.4581 3.53465C13.4644 3.53465 13.4713 3.53465 13.4788 3.53465L14.3876 3.38414L12.7315 5.00529C11.3839 4.04803 9.78727 3.49319 8.1105 3.49319C5.94303 3.49319 3.90574 4.3363 2.37292 5.89814C-0.790975 9.12195 -0.790975 14.3591 2.37292 17.5829C3.90574 19.1441 5.94303 20 8.1105 20C10.278 20 12.3146 19.1365 13.8475 17.5759C16.5989 14.7724 17.0351 10.4421 15.0041 7.23996L16.8574 5.43513V6.55502C16.8574 7.44212 17.559 8.16023 18.4284 8.16023C19.2971 8.16023 20 7.44212 20 6.55502V1.59016C19.9975 1.16223 19.9305 0.0971904 18.3833 0.000252878ZM11.6193 15.3043C10.6829 16.2596 9.43615 16.787 8.10925 16.787C6.78235 16.787 5.53557 16.2596 4.59861 15.3043C2.66146 13.3324 2.66146 10.1219 4.59861 8.14875C5.53557 7.1934 6.78235 6.66599 8.10925 6.66599C9.43615 6.66599 10.6829 7.1934 11.6193 8.14875C13.5564 10.1219 13.5564 13.333 11.6193 15.3043Z" fill="#3EA6FF"/>
</svg>
