<svg width="16" height="23" viewBox="0 0 16 23" fill="none" xmlns="http://www.w3.org/2000/svg">
<path fill-rule="evenodd" clip-rule="evenodd" d="M9.26624 16.3033V17.8984H10.2999C10.9991 17.8984 11.5662 18.4799 11.5662 19.197C11.5662 19.914 10.9991 20.4955 10.2999 20.4955H9.26624V21.7014C9.26624 22.4185 8.69918 23 7.99991 23C7.30064 23 6.73358 22.4185 6.73358 21.7014V20.4955H5.69957C5.00052 20.4955 4.43324 19.9139 4.43324 19.197C4.43324 18.4801 5.00052 17.8984 5.69957 17.8984H6.73358V16.3033C2.89162 15.6753 0 12.2517 0 8.20323C0 3.67964 3.5884 0 7.99991 0C12.4114 0 16 3.6796 16 8.20323C16 12.2518 13.1083 15.6753 9.26624 16.3033ZM2.53248 8.20323C2.53248 11.2941 4.98571 13.8094 7.99987 13.8094C11.0142 13.8094 13.4673 11.2942 13.4673 8.20323C13.4673 5.11229 11.0141 2.59707 7.99987 2.59707C4.98576 2.59707 2.53248 5.11238 2.53248 8.20323Z" fill="#F8759C"/>
</svg>
