<svg width="36" height="36" viewBox="0 0 36 36" fill="none" xmlns="http://www.w3.org/2000/svg">
<circle cx="18" cy="18" r="18" fill="white"/>
<path fill-rule="evenodd" clip-rule="evenodd" d="M19.2662 23.3033V24.8984H20.2999C20.9991 24.8984 21.5662 25.4799 21.5662 26.197C21.5662 26.914 20.9991 27.4955 20.2999 27.4955H19.2662V28.7014C19.2662 29.4185 18.6992 30 17.9999 30C17.3006 30 16.7336 29.4185 16.7336 28.7014V27.4955H15.6996C15.0005 27.4955 14.4332 26.9139 14.4332 26.197C14.4332 25.4801 15.0005 24.8984 15.6996 24.8984H16.7336V23.3033C12.8916 22.6753 10 19.2517 10 15.2032C10 10.6796 13.5884 7 17.9999 7C22.4114 7 26 10.6796 26 15.2032C26 19.2518 23.1083 22.6753 19.2662 23.3033ZM12.5325 15.2032C12.5325 18.2941 14.9857 20.8094 17.9999 20.8094C21.0142 20.8094 23.4673 18.2942 23.4673 15.2032C23.4673 12.1123 21.0141 9.59707 17.9999 9.59707C14.9858 9.59707 12.5325 12.1124 12.5325 15.2032Z" fill="#F8759C"/>
</svg>
