<svg width="100" height="100" viewBox="0 0 100 100" fill="none" xmlns="http://www.w3.org/2000/svg">
<path d="M68.3042 55.7894L63.7307 73.5908C63.3517 75.2206 61.7345 76.2314 60.1047 75.8523C60.0921 75.8523 60.0795 75.8523 60.0668 75.8397L57.2368 75.1196C55.607 74.6774 54.6342 73.0223 55.0385 71.3799L58.576 56.9644L68.3042 55.7894Z" fill="#02648E"/>
<path d="M76.9709 48.6639L76.4024 52.631C76.0613 54.9683 73.8882 56.5981 71.5383 56.257L68.304 55.7895L70.4265 43.3702L73.345 43.7998C75.6823 44.1409 77.312 46.314 76.9709 48.6639Z" fill="#02648E"/>
<path d="M51.8924 66.9833L55.8721 67.9814L58.0578 59.2765L51.3997 64.5196C50.49 65.2398 50.7806 66.7053 51.8924 66.9833Z" fill="#27BDD2"/>
<path d="M70.4264 43.3701L68.3039 55.7894L58.5883 56.9644L54.697 57.5708C56.0868 54.1723 57.0596 50.6095 57.5902 46.9709C58.0703 43.7365 58.184 40.4643 57.944 37.2047L70.4264 43.3701Z" fill="#1F315F"/>
<path d="M46.7 45.1136C45.8409 51.0138 43.9079 56.1685 41.5201 59.6176C39.347 62.7635 36.7823 64.507 34.306 64.1406C32.4867 63.8753 30.958 62.5234 29.7957 60.3882C30.4653 61.1589 31.2486 61.639 32.1077 61.7527C33.548 61.9549 35.0262 61.1589 36.4159 59.6049C37.5024 58.3921 38.5384 56.7244 39.4607 54.7029C40.383 52.6941 41.1663 50.3315 41.7728 47.7415C41.8107 47.552 42.4424 44.2293 42.4424 44.2293C42.594 43.2059 42.8846 40.0095 42.9098 39.4283C43.0993 34.8927 42.5561 30.9256 41.4064 28.1966C40.5093 26.0741 39.2459 24.7349 37.7172 24.5201C37.0729 24.4317 36.4159 24.5454 35.7716 24.836C37.2245 23.661 38.7532 23.1177 40.2567 23.3325C42.973 23.7368 45.0576 26.5795 46.1947 30.7992C47.2433 34.6779 47.496 39.7189 46.7 45.1136Z" fill="#1F315F"/>
<path d="M42.9097 39.4283C42.8844 40.0095 42.5938 43.2059 42.4422 44.2293C42.4422 44.2293 41.8105 47.5521 41.7726 47.7416C41.1662 50.3315 40.3828 52.6941 39.4606 54.7029C38.5509 56.7244 37.5023 58.3921 36.4157 59.605C35.0134 61.159 33.5478 61.9549 32.1075 61.7528C31.2484 61.6264 30.4651 61.159 29.7955 60.3883C28.6963 59.1375 27.8751 57.0908 27.395 54.5261C27.395 54.5261 26.3085 49.1439 27.395 42.0815C28.5952 34.0589 31.678 27.5144 34.9376 25.3034C35.2155 25.1139 35.4935 24.9623 35.7714 24.836C36.4284 24.5454 37.0853 24.4317 37.7171 24.5201C39.2458 24.7349 40.4965 26.0741 41.4062 28.1966C42.5559 30.9256 43.0992 34.8927 42.9097 39.4283Z" fill="#CAD9EF"/>
<path d="M42.7959 41.2099C42.7201 42.1954 42.6064 43.2061 42.4548 44.2295C42.4548 44.2295 42.1011 46.3773 41.9368 47.1606C41.8989 47.3501 41.8484 47.5522 41.8105 47.7417C39.2837 47.5522 36.5926 47.249 36.302 47.1985C34.0911 46.8826 32.5371 45.0128 32.8277 43.0292C33.1182 41.0457 35.1397 39.7065 37.3507 40.0223C37.6412 40.0981 40.3702 40.6035 42.7959 41.2099Z" fill="#27BDD2"/>
<path d="M57.5777 46.9708C57.0471 50.6094 56.0742 54.1596 54.6845 57.5582L41.5198 59.6175C43.9076 56.1684 45.8406 51.0137 46.6997 45.1136C47.4957 39.7189 47.243 34.6779 46.1944 30.7992L57.9314 37.2047C58.1715 40.4643 58.0578 43.7365 57.5777 46.9708Z" fill="#D3D3D3"/>
<path d="M49.9999 0L48.3863 4.96231H43.166L47.3746 8.02013L45.7913 13.0204L49.9999 9.96256L54.2035 13.0204L52.6253 8.02013L56.8339 4.96231H51.6186L49.9999 0Z" fill="#FFCC00"/>
<path d="M51.6186 91.292L49.9999 86.3297L48.3863 91.292H43.166L47.3746 94.3498L45.7913 99.3501L49.9999 96.2923L54.2035 99.3501L52.6202 94.3498L56.8288 91.292H51.6186Z" fill="#FFCC00"/>
<path d="M6.83393 53.1411L11.0425 56.1761L9.45925 51.1759L13.6679 48.1181H8.45263L6.83393 43.1558L5.21523 48.1181H0L4.20861 51.1759L2.62532 56.1761L6.83393 53.1411Z" fill="#FFCC00"/>
<path d="M28.4055 5.78931L26.7868 10.7542H21.5767L25.7853 13.8474L24.202 18.8097L28.4055 15.7089L32.6141 18.8021L31.0309 13.8398L35.242 10.7466H30.0369L28.4055 5.78931Z" fill="#FFCC00"/>
<path d="M12.6262 21.5817L11.0075 26.544H5.79224L10.0008 29.6018L8.38215 34.602L12.6262 31.5442L16.8348 34.602L15.2161 29.6018L19.4601 26.544H14.2423L12.6262 21.5817Z" fill="#FFCC00"/>
<path d="M14.2423 69.71L12.6236 64.7477L11.0049 69.71H5.79224L10.0008 72.7678L8.38215 77.7681L12.6262 74.7102L16.8348 77.7681L15.2161 72.7678L19.4601 69.71H14.2423Z" fill="#FFCC00"/>
<path d="M30.0343 85.5151L28.4055 80.5402L26.797 85.5151H21.5767L25.7853 88.6084L24.207 93.558L28.4055 90.4648L32.6141 93.558L31.0309 88.5957L35.2496 85.5151H30.0343Z" fill="#FFCC00"/>
<path d="M100 48.1282H94.7849L93.1662 43.1659L91.5475 48.1282H86.3247L90.5333 51.186L88.9576 56.1762L93.1662 53.1411L97.3748 56.1762L95.7915 51.1759L100 48.1282Z" fill="#FFCC00"/>
<path d="M71.5817 5.78931L69.963 10.7542H64.7478L68.9564 13.8474L67.3731 18.8097L71.5817 15.7089L75.7903 18.8021L74.2071 13.8398L78.4157 10.7466H73.2004L71.5817 5.78931Z" fill="#FFCC00"/>
<path d="M84.7843 29.6018L83.1656 34.602L87.3742 31.5442L91.6182 34.602L89.9995 29.6018L94.2081 26.544H88.9929L87.3742 21.5817L85.7555 26.544H80.5403L84.7843 29.6018Z" fill="#FFCC00"/>
<path d="M88.9905 69.71L87.3718 64.7477L85.7531 69.71H80.5378L84.7819 72.7678L83.1632 77.7681L87.3718 74.7102L91.6158 77.7681L89.9971 72.7678L94.2082 69.71H88.9905Z" fill="#FFCC00"/>
<path d="M73.2004 85.5152L71.5817 80.5529L69.963 85.5152H64.7478L68.9564 88.6084L67.3731 93.5707L71.5817 90.4775L75.7903 93.5707L74.2071 88.6084L78.4157 85.5152H73.2004Z" fill="#FFCC00"/>
</svg>
