<svg width="94" height="105" viewBox="0 0 94 105" fill="none" xmlns="http://www.w3.org/2000/svg">
<path d="M82.5586 58.2361H70.0728C68.0327 58.2361 66.3798 59.8897 66.3798 61.9291V76.8687C66.3798 74.8293 64.7261 73.1756 62.6868 73.1756H50.2002C48.16 73.1756 46.5072 74.8285 46.5072 76.8687V86.7181C46.5072 84.6787 44.8535 83.025 42.8141 83.025H30.3276C28.2874 83.025 26.6346 84.6787 26.6346 86.7181V95.8869C26.6346 93.8476 24.9809 92.1939 22.9407 92.1939H10.455C8.41562 92.1939 6.76196 93.8468 6.76196 95.8869V102.898H86.2524V61.9291C86.2524 59.8897 84.5987 58.2361 82.5586 58.2361Z" fill="#A7C7D3"/>
<path d="M71.774 59.7956C70.9117 59.7956 70.2136 59.0974 70.2136 58.2359V1.55962C70.2136 0.698124 70.9117 0 71.774 0C72.6355 0 73.3337 0.698124 73.3337 1.55962V58.2359C73.3337 59.0974 72.6347 59.7956 71.774 59.7956Z" fill="#A7C7D3"/>
<path d="M26.6346 102.897H6.76196V95.8868C6.76196 93.8474 8.41562 92.1937 10.455 92.1937H22.9415C24.9809 92.1937 26.6346 93.8466 26.6346 95.8868V102.897Z" fill="#A7C7D3"/>
<path d="M46.5074 102.897H26.6348V86.7178C26.6348 84.6784 28.2884 83.0248 30.3278 83.0248H42.8143C44.8537 83.0248 46.5074 84.6784 46.5074 86.7178V102.897Z" fill="#89B4C9"/>
<path d="M66.3799 102.897H46.5073V76.8685C46.5073 74.8291 48.1602 73.1754 50.2004 73.1754H62.6869C64.7263 73.1754 66.3799 74.8283 66.3799 76.8685V102.897Z" fill="#6C96B3"/>
<path d="M86.2525 102.898H66.3799V61.9291C66.3799 59.8897 68.0327 58.2361 70.0729 58.2361H82.5587C84.5988 58.2361 86.2525 59.8897 86.2525 61.9291V102.898Z" fill="#618AAA"/>
<path d="M91.7602 104.457H1.55962C0.698123 104.457 0 103.759 0 102.898C0 102.036 0.698123 101.338 1.55962 101.338H91.7602C92.6217 101.338 93.3198 102.036 93.3198 102.898C93.3198 103.759 92.6217 104.457 91.7602 104.457Z" fill="#2F5066"/>
<path d="M71.7744 16.3884H91.7626C92.3818 16.3884 92.6711 15.6217 92.2065 15.2129L87.0144 10.64C86.71 10.3731 86.71 9.89968 87.0144 9.63191L92.2065 5.05984C92.6711 4.65021 92.3818 3.88354 91.7626 3.88354H71.7744V16.3884Z" fill="#FDB659"/>
<path d="M73.366 22.2402L51.713 34.0007C49.7812 35.0503 49.2528 36.8945 48.5786 39.2701L44.2727 54.499L49.9597 56.4523L54.825 50.1739L58.9205 37.7918L69.8172 31.1708C72.8623 29.3211 74.3103 25.6759 73.366 22.2402Z" fill="#83D9FF"/>
<path d="M73.366 22.2402L70.8675 23.5974C70.4468 25.7476 69.1477 27.6897 67.1833 28.8836L57.2541 34.9164C56.6293 35.2958 56.1599 35.8863 55.9296 36.5805L54.5118 40.8672C53.0383 45.3221 49.6911 48.9108 45.3494 50.6904L44.2727 54.499L54.825 50.1747L58.9205 37.7926L69.8172 31.1708C72.8623 29.3211 74.3103 25.6759 73.366 22.2402Z" fill="#5FC9ED"/>
<path d="M54.825 50.1741L61.0603 57.5442C62.094 58.9126 62.9929 59.8745 62.8064 61.3799L61.348 73.1691H57.5426L56.548 63.0344C56.4875 62.4207 56.0994 61.8892 55.5335 61.6453L44.2727 54.4991L54.825 50.1741Z" fill="#38627C"/>
<path d="M44.2725 54.4991L43.6645 65.6731C43.6246 66.5999 43.7545 67.2263 43.3919 67.9157L36.2114 83.0249H40.248L51.0442 68.6815C51.6753 67.9467 51.7487 66.949 51.9614 66.0309L54.8241 50.1741L44.2725 54.4991Z" fill="#4F7693"/>
<path d="M54.0511 24.6527L55.8219 28.1099C56.6539 29.7341 56.0115 31.7264 54.3866 32.5584L53.0182 33.2589C51.3933 34.091 49.4017 33.4486 48.5697 31.8237L46.7989 28.3665C45.9669 26.7415 46.6092 24.75 48.2342 23.918L49.6025 23.2174C51.2267 22.3854 53.2183 23.0278 54.0511 24.6527Z" fill="#FECBAA"/>
</svg>
