<svg width="85" height="85" viewBox="0 0 85 85" fill="none" xmlns="http://www.w3.org/2000/svg">
<path d="M79.099 84.0241H59.2417V79.1008H49.3951V69.0901H42.9502L47.1955 60.5969C48.6354 57.7217 49.3951 54.5029 49.3951 51.2865C49.3951 42.101 56.869 34.6271 66.0545 34.6271C74.7064 34.6271 82.2338 40.5071 83.7218 48.6084C84.765 54.26 83.0414 59.9021 79.099 63.9192V84.0241Z" fill="#FFCCB3"/>
<path d="M24.7789 84.0241H4.9216V63.9192C0.979192 59.9023 -0.744452 54.2602 0.298793 48.6061C1.78678 40.5071 9.31432 34.6271 17.966 34.6271C27.1516 34.6271 34.6254 42.101 34.6254 51.2865C34.6254 54.5031 35.3851 57.7219 36.825 60.5969L41.0704 69.0901H34.6254V79.1008H24.7789V84.0241Z" fill="#FFE6CC"/>
<path d="M44.4719 49.397V37.0887H42.0103H39.5487V49.397H22.3171V54.3203H42.0103H61.7035V49.397H44.4719Z" fill="#F9F5F3"/>
<path d="M61.7037 49.397H44.4721V37.0887H42.0105V54.3203H61.7037V49.397Z" fill="#F0DBD8"/>
<path d="M42.0106 0C32.5101 0 24.7791 7.89515 24.7791 17.3956C24.7791 24.0426 28.6711 30.0693 34.6256 32.9035V39.5504H42.0106H49.3955V32.9035C55.3501 30.0692 59.2421 24.0426 59.2421 17.3956C59.2421 7.89515 51.511 0 42.0106 0V0Z" fill="#FFEA80"/>
<path d="M49.3954 32.9035C55.35 30.0692 59.242 24.0426 59.242 17.3956C59.242 7.89515 51.511 0 42.0105 0V39.5504H49.3954V32.9035Z" fill="#FFCC66"/>
<path d="M66.6269 59.2437C62.5547 59.2437 59.2419 55.931 59.2419 51.8588C59.2419 47.7866 62.5547 44.4739 66.6269 44.4739C70.6991 44.4739 74.0118 47.7866 74.0118 51.8588C74.0118 55.931 70.6991 59.2437 66.6269 59.2437Z" fill="#F0DBD8"/>
<path d="M17.394 59.2437C13.3218 59.2437 10.009 55.931 10.009 51.8588C10.009 47.7866 13.3218 44.4739 17.394 44.4739C21.4662 44.4739 24.7789 47.7866 24.7789 51.8588C24.7789 55.931 21.4662 59.2437 17.394 59.2437Z" fill="#F9F5F3"/>
<path d="M11.1033 26.0327L20.3592 22.6651L22.0425 27.2916L12.7865 30.6592L11.1033 26.0327Z" fill="#FFEA80"/>
<path d="M62.0039 7.50049L71.2598 4.1329L72.9431 8.75941L63.6872 12.127L62.0039 7.50049Z" fill="#FFCC66"/>
<path d="M11.0981 8.75818L12.7814 4.13167L22.0373 7.49926L20.3541 12.1258L11.0981 8.75818Z" fill="#FFEA80"/>
<path d="M61.9912 27.264L63.6745 22.6375L72.9304 26.0051L71.2472 30.6316L61.9912 27.264Z" fill="#FFCC66"/>
<path d="M42.0104 14.934H34.6255V19.8572H39.5488V24.7805H42.0104H44.4721V19.8572H49.3954V14.934H42.0104Z" fill="#FFCC66"/>
<path d="M44.4721 19.8572H49.3954V14.934H42.0105V24.7805H44.4721V19.8572Z" fill="#FFA54D"/>
</svg>
