<svg width="100" height="76" viewBox="0 0 100 76" fill="none" xmlns="http://www.w3.org/2000/svg">
<path d="M92.8572 12.8122L99.9679 59.3176C100.198 60.8218 99.1637 62.2292 97.6596 62.4592L51.1542 69.5699C49.65 69.7999 48.2426 68.7658 48.0125 67.2616L40.9019 20.7562C40.6719 19.2521 41.706 17.8447 43.2102 17.6146L89.7155 10.5039C91.2197 10.274 92.6271 11.308 92.8572 12.8122Z" fill="url(#paint0_linear_1127_14720)"/>
<path d="M93.3532 16.5233L96.9188 63.4339C97.0342 64.9512 95.8963 66.2761 94.3791 66.3915L47.4685 69.9571C45.9512 70.0725 44.6263 68.9346 44.5109 67.4174L40.9453 20.5069C40.8299 18.9895 41.9678 17.6646 43.485 17.5492L90.3956 13.9836C91.9129 13.8682 93.2379 15.006 93.3532 16.5233Z" fill="url(#paint1_linear_1127_14720)"/>
<path d="M93.5668 20.2617V67.3075C93.5668 68.8292 92.3318 70.0641 90.8102 70.0641H43.7644C42.2427 70.0641 41.0078 68.8291 41.0078 67.3075V20.2617C41.0078 18.74 42.2428 17.5051 43.7644 17.5051H90.8102C92.3319 17.505 93.5668 18.7401 93.5668 20.2617Z" fill="url(#paint2_linear_1127_14720)"/>
<path d="M75.9851 72.5354L40.1605 69.8401C38.6423 69.7258 37.5043 68.4026 37.6185 66.8844L41.1479 19.9712C41.2622 18.453 42.5854 17.315 44.1036 17.4292L91.0169 20.9585C92.5351 21.0728 93.6731 22.3961 93.5591 23.9142L90.8097 60.4584C90.778 60.8791 90.5821 61.2703 90.2645 61.5478L78.7229 71.624C77.9689 72.282 76.9829 72.6103 75.9851 72.5354Z" fill="url(#paint3_linear_1127_14720)"/>
<path d="M46.6774 36.4065L87.3271 39.4885L87.5583 36.4393L46.9086 33.3573L46.6774 36.4065Z" fill="#FFF2EB"/>
<path d="M46.0892 44.1687L86.739 47.2507L86.9702 44.2015L46.3204 41.1195L46.0892 44.1687Z" fill="#FFF2EB"/>
<path d="M45.4992 51.9296L75.5862 54.2108L75.8174 51.1616L45.7304 48.8804L45.4992 51.9296Z" fill="#FFF2EB"/>
<path d="M78.7225 71.6243L82.7917 68.0716L37.7838 64.6857L37.6185 66.8848C37.5078 68.3547 38.5732 69.6433 40.0194 69.8261C40.0659 69.8319 40.1131 69.8367 40.1606 69.8402L75.9851 72.5354C76.9827 72.6106 77.9688 72.2823 78.7225 71.6243Z" fill="url(#paint4_linear_1127_14720)"/>
<path d="M90.6196 61.1043C90.6196 61.1043 90.5212 61.3283 90.1773 61.624C90.0496 61.7339 78.7908 71.5649 78.7908 71.5649C77.9936 72.2608 76.9508 72.6078 75.8955 72.5285C76.8064 72.597 77.6004 71.9141 77.6689 71.0032L78.2754 62.94C78.3897 61.4218 79.713 60.2839 81.2311 60.398L90.6196 61.1043Z" fill="url(#paint5_linear_1127_14720)"/>
<path d="M55.3089 8.85047C42.4409 8.85047 33.8528 3.00203 30.6186 0.800432L29.9878 0.372709C29.6161 0.124187 29.1884 0 28.7607 0C28.333 0 27.9051 0.124187 27.5336 0.372709L26.8983 0.802644C23.3616 3.21161 15.0781 8.85047 2.21236 8.85047C0.989514 8.85047 0 9.83999 0 11.0628V34.6259C0 52.2924 9.34413 66.0705 27.7712 75.2829C28.0822 75.4385 28.4215 75.5163 28.7607 75.5163C29.0999 75.5163 29.4391 75.4385 29.7502 75.2829C48.1772 66.0705 57.5214 52.2924 57.5214 34.6259V11.0628C57.5212 9.83999 56.5317 8.85047 55.3089 8.85047Z" fill="#EDF5FF"/>
<path d="M57.5213 34.6259V11.0628C57.5213 9.83999 56.5318 8.85047 55.3089 8.85047C42.4409 8.85047 33.8529 3.00203 30.6187 0.800432L29.9879 0.372709C29.6162 0.124187 29.1885 0 28.7607 0V75.5163C29.1 75.5163 29.4392 75.4385 29.7503 75.2829C48.177 66.0705 57.5213 52.2924 57.5213 34.6259Z" fill="#D5E8FE"/>
<path d="M46.8267 16.9956C40.9048 15.9953 35.2011 13.9168 29.8733 10.8187C29.5298 10.6178 29.1451 10.5173 28.7606 10.5173C28.3761 10.5173 27.9914 10.6178 27.6479 10.8187C22.3244 13.9146 16.6206 15.9931 10.6923 16.9956C9.6293 17.177 8.84937 18.0975 8.84937 19.1777V34.6259C8.84937 50.4494 17.8392 58.6384 27.553 64.973C27.9202 65.2128 28.3394 65.3317 28.7606 65.3317C29.1818 65.3317 29.601 65.2128 29.9683 64.973C39.6818 58.6384 48.6718 50.4494 48.6718 34.6259V19.1777C48.6718 18.0975 47.8919 17.177 46.8267 16.9956Z" fill="#02648E"/>
<path d="M48.6717 34.6259V19.1777C48.6717 18.0975 47.8918 17.1771 46.8266 16.9956C40.9047 15.9953 35.201 13.9168 29.8732 10.8187C29.5297 10.6178 29.145 10.5173 28.7605 10.5173V65.3317C29.1817 65.3317 29.6009 65.2128 29.9682 64.973C39.6819 58.6384 48.6717 50.4494 48.6717 34.6259Z" fill="#364671"/>
<path d="M36.9617 31.7698C36.0976 30.9057 34.6975 30.9057 33.8333 31.7698L28.7604 36.8428L26.548 39.0551L23.6874 36.1945C22.8233 35.3304 21.4231 35.3304 20.559 36.1945C19.6949 37.0587 19.6949 38.4588 20.559 39.323L24.9837 43.7477C25.4159 44.1798 25.9819 44.3959 26.5479 44.3959C27.1138 44.3959 27.68 44.1798 28.112 43.7477L28.7602 43.0995L36.9614 34.8982C37.826 34.0339 37.826 32.634 36.9617 31.7698Z" fill="#EDF5FF"/>
<path d="M36.9616 31.7698C36.0975 30.9057 34.6973 30.9057 33.8332 31.7698L28.7603 36.8428V43.0996L36.9615 34.8984C37.8259 34.0339 37.8259 32.634 36.9616 31.7698Z" fill="#D5E8FE"/>
<defs>
<linearGradient id="paint0_linear_1127_14720" x1="79.0712" y1="46.3844" x2="118.695" y2="75.5013" gradientUnits="userSpaceOnUse">
<stop stop-color="#B8DE6F"/>
<stop offset="1" stop-color="#8AA753"/>
</linearGradient>
<linearGradient id="paint1_linear_1127_14720" x1="77.0635" y1="48.954" x2="114.368" y2="80.9872" gradientUnits="userSpaceOnUse">
<stop stop-color="#FE7695"/>
<stop offset="1" stop-color="#FE547B"/>
</linearGradient>
<linearGradient id="paint2_linear_1127_14720" x1="74.8672" y1="51.3658" x2="109.637" y2="86.1355" gradientUnits="userSpaceOnUse">
<stop stop-color="#67DCDC"/>
<stop offset="1" stop-color="#019394"/>
</linearGradient>
<linearGradient id="paint3_linear_1127_14720" x1="65.5881" y1="38.4513" x2="65.5881" y2="98.148" gradientUnits="userSpaceOnUse">
<stop stop-color="#FCC344"/>
<stop offset="1" stop-color="#F7AE3D"/>
</linearGradient>
<linearGradient id="paint4_linear_1127_14720" x1="60.2007" y1="66.5996" x2="60.2007" y2="72.3552" gradientUnits="userSpaceOnUse">
<stop stop-color="#FCC344" stop-opacity="0"/>
<stop offset="1" stop-color="#D48000"/>
</linearGradient>
<linearGradient id="paint5_linear_1127_14720" x1="81.2861" y1="64.5255" x2="89.5348" y2="74.1161" gradientUnits="userSpaceOnUse">
<stop stop-color="#FCC344"/>
<stop offset="1" stop-color="#D48000"/>
</linearGradient>
</defs>
</svg>
