<svg width="20" height="20" viewBox="0 0 20 20" fill="none" xmlns="http://www.w3.org/2000/svg">
<rect width="20" height="20" rx="10" fill="url(#paint0_linear_1127_14845)"/>
<rect x="2.75" y="3.25" width="14.5" height="14.5" rx="7.25" fill="#F1A305"/>
<rect x="2.75" y="2.75" width="14.5" height="14.5" rx="7.25" fill="url(#paint1_linear_1127_14845)"/>
<path d="M3.19775 12.5142C4.21994 15.2792 6.87982 17.2504 10.0001 17.2504C11.94 17.2504 13.702 16.4885 15.0031 15.2476C13.7235 15.8893 12.279 16.2504 10.7501 16.2504C7.67078 16.2504 4.93367 14.7853 3.19775 12.5142Z" fill="#F8D03F"/>
<path d="M9.8488 4.61267C9.89637 4.46261 10.1035 4.46261 10.1511 4.61266L11.2818 8.1782C11.303 8.24531 11.3641 8.29074 11.4329 8.29074L15.0908 8.29074C15.2447 8.29074 15.3087 8.49265 15.1842 8.58539L12.2246 10.7889C12.1689 10.8304 12.1456 10.9039 12.1669 10.971L13.2975 14.5362C13.3451 14.6862 13.1775 14.811 13.0529 14.7183L10.0933 12.5149C10.0376 12.4734 9.96222 12.4734 9.90652 12.5149L6.94706 14.7183C6.8225 14.811 6.65492 14.6862 6.7025 14.5362L7.833 10.971C7.85428 10.9039 7.83097 10.8304 7.77527 10.7889L4.81582 8.58538C4.69126 8.49264 4.75527 8.29074 4.90923 8.29074L8.56726 8.29074C8.63611 8.29074 8.69713 8.2453 8.71841 8.17819L9.8488 4.61267Z" fill="#DE960A"/>
<path fill-rule="evenodd" clip-rule="evenodd" d="M8.71835 8.17807C8.69707 8.24518 8.63605 8.29062 8.5672 8.29062L4.90917 8.29062C4.75522 8.29062 4.6912 8.49252 4.81576 8.58526L7.77521 10.7888C7.83091 10.8303 7.85422 10.9038 7.83294 10.9709L6.70244 14.536C6.65486 14.6861 6.82244 14.8109 6.947 14.7182L9.90646 12.5148C9.96216 12.4733 10.0376 12.4733 10.0933 12.5148L13.0529 14.7182C13.1774 14.8109 13.345 14.6861 13.2974 14.536L12.1668 10.9709C12.1455 10.9038 12.1688 10.8303 12.2245 10.7888L15.1841 8.58526C15.3087 8.49252 15.2447 8.29062 15.0907 8.29062H11.4329C11.364 8.29062 11.303 8.24518 11.2817 8.17808L10.151 4.61254C10.1035 4.46248 9.89631 4.46249 9.84874 4.61255L8.71835 8.17807ZM11.6834 7.79062L10.6276 4.4614C10.4326 3.84618 9.56716 3.84621 9.37212 4.46144L8.31666 7.79062L4.90917 7.79062C4.24636 7.79062 4.02861 8.62255 4.51715 8.9863L7.28437 11.0467L6.22583 14.3849C6.04541 14.9539 6.6949 15.5292 7.24559 15.1192L9.99988 13.0686L12.7543 15.1192C13.305 15.5292 13.9545 14.9539 13.774 14.3849L12.7154 11.0467L15.4827 8.98631C15.9713 8.62256 15.7535 7.79062 15.0907 7.79062L11.6834 7.79062Z" fill="white"/>
<path d="M2.40308 5.9763C2.2183 5.85847 1.97164 5.92252 1.87705 6.12021C1.69861 6.4931 1.5451 6.8802 1.41867 7.27934C1.34375 7.51587 1.52533 7.75011 1.77344 7.75011C1.94335 7.75011 2.0917 7.63694 2.14365 7.47517C2.25435 7.13044 2.38711 6.7956 2.54027 6.4723C2.62408 6.29538 2.56814 6.08155 2.40308 5.9763Z" fill="#FDFF93"/>
<path d="M4.25125 3.5646C4.3886 3.72177 4.62737 3.73576 4.78912 3.60383C5.8841 2.71068 7.21273 2.09311 8.66925 1.85689C8.85748 1.82636 9.0001 1.66665 9.0001 1.47595C9.0001 1.25137 8.80471 1.07597 8.58289 1.11105C6.96857 1.3664 5.49702 2.05094 4.28879 3.04412C4.1301 3.17458 4.11607 3.40991 4.25125 3.5646Z" fill="#FDFF93"/>
<path d="M16.2333 10.9475C17.0511 10.8187 17.8185 11.3772 17.9474 12.195C17.8185 11.3772 18.377 10.6097 19.1948 10.4809C18.377 10.6097 17.6096 10.0513 17.4807 9.23347C17.6096 10.0513 17.0511 10.8187 16.2333 10.9475Z" fill="white"/>
<path d="M1.34753 12.9003C2.56559 12.7084 3.70862 13.5402 3.90055 14.7583C3.70862 13.5402 4.54045 12.3972 5.75851 12.2053C4.54045 12.3972 3.39743 11.5653 3.20549 10.3473C3.39743 11.5653 2.56559 12.7084 1.34753 12.9003Z" fill="white"/>
<path d="M2.91986 3.95546C4.55212 4.46355 5.46343 6.19867 4.95534 7.8309C5.46343 6.19867 7.19853 5.28733 8.83079 5.79542C7.19853 5.28733 6.28722 3.55222 6.79531 1.91998C6.28722 3.55222 4.55212 4.46355 2.91986 3.95546Z" fill="white"/>
<defs>
<linearGradient id="paint0_linear_1127_14845" x1="10" y1="0" x2="10" y2="20" gradientUnits="userSpaceOnUse">
<stop stop-color="#FAD945"/>
<stop offset="1" stop-color="#FFB800"/>
</linearGradient>
<linearGradient id="paint1_linear_1127_14845" x1="10" y1="2.75" x2="10" y2="17.25" gradientUnits="userSpaceOnUse">
<stop stop-color="#F9EA4D"/>
<stop offset="1" stop-color="#F7DF48"/>
</linearGradient>
</defs>
</svg>
