<svg width="25" height="25" viewBox="0 0 25 25" fill="none" xmlns="http://www.w3.org/2000/svg">
<g clip-path="url(#clip0_1127_14992)">
<path d="M19.6959 4.51526C19.3693 4.51526 19.1035 4.78106 19.1035 5.10767C19.1035 5.43428 19.3693 5.70007 19.6959 5.70007C20.0226 5.70007 20.2883 5.43433 20.2883 5.10767C20.2883 4.78101 20.0226 4.51526 19.6959 4.51526Z" fill="#3B72B6"/>
<path d="M12.6026 7.62561C10.0798 7.62561 8.02734 9.67809 8.02734 12.2009C8.02734 14.7237 10.0798 16.7762 12.6026 16.7762C15.1255 16.7762 17.178 14.7238 17.178 12.2009C17.178 9.67813 15.1255 7.62561 12.6026 7.62561Z" fill="#3B72B6"/>
<path d="M18.1142 0H7.0912C3.40269 0 0.401855 3.00083 0.401855 6.6894V17.7123C0.401855 21.4009 3.40269 24.4017 7.0912 24.4017H18.1142C21.8027 24.4017 24.8035 21.4008 24.8035 17.7123V6.6894C24.8035 3.00083 21.8027 0 18.1142 0ZM12.6027 18.8938C8.91218 18.8938 5.90982 15.8914 5.90982 12.2008C5.90982 8.51032 8.91223 5.50801 12.6027 5.50801C16.2932 5.50801 19.2956 8.51037 19.2956 12.2008C19.2956 15.8913 16.2932 18.8938 12.6027 18.8938ZM19.6959 7.14111C18.5747 7.14111 17.6625 6.22891 17.6625 5.10767C17.6625 3.98643 18.5747 3.07418 19.6959 3.07418C20.8171 3.07418 21.7294 3.98639 21.7294 5.10762C21.7294 6.22886 20.8171 7.14111 19.6959 7.14111Z" fill="#3B72B6"/>
</g>
<defs>
<clipPath id="clip0_1127_14992">
<rect x="0.401855" width="24.4017" height="24.4017" rx="7.14893" fill="white"/>
</clipPath>
</defs>
</svg>
