<svg width="36" height="36" viewBox="0 0 36 36" fill="none" xmlns="http://www.w3.org/2000/svg">
<circle cx="18" cy="18" r="18" fill="white"/>
<path d="M26.3833 8.00025C26.3132 7.99579 21.4369 8.05191 21.4369 8.05191C20.5675 8.06275 19.8721 8.92754 19.884 9.81401C19.8947 10.6922 20.5982 11.5346 21.4581 11.5346C21.4644 11.5346 21.4713 11.5346 21.4788 11.5346L22.3876 11.3841L20.7315 13.0053C19.3839 12.048 17.7873 11.4932 16.1105 11.4932C13.943 11.4932 11.9057 12.3363 10.3729 13.8981C7.20903 17.1219 7.20903 22.3591 10.3729 25.5829C11.9057 27.1441 13.943 28 16.1105 28C18.278 28 20.3146 27.1365 21.8475 25.5759C24.5989 22.7724 25.0351 18.4421 23.0041 15.24L24.8574 13.4351V14.555C24.8574 15.4421 25.559 16.1602 26.4284 16.1602C27.2971 16.1602 28 15.4421 28 14.555V9.59016C27.9975 9.16223 27.9305 8.09719 26.3833 8.00025ZM19.6193 23.3043C18.6829 24.2596 17.4361 24.787 16.1093 24.787C14.7824 24.787 13.5356 24.2596 12.5986 23.3043C10.6615 21.3324 10.6615 18.1219 12.5986 16.1487C13.5356 15.1934 14.7824 14.666 16.1093 14.666C17.4361 14.666 18.6829 15.1934 19.6193 16.1487C21.5564 18.1219 21.5564 21.333 19.6193 23.3043Z" fill="#3EA6FF"/>
</svg>
