<svg width="20" height="20" viewBox="0 0 20 20" fill="none" xmlns="http://www.w3.org/2000/svg">
<rect width="20" height="20" rx="10" fill="url(#paint0_linear_1127_14860)"/>
<rect x="2.75" y="3.25012" width="14.5" height="14.5" rx="7.25" fill="#7A91AB"/>
<rect x="2.75" y="2.75" width="14.5" height="14.5" rx="7.25" fill="url(#paint1_linear_1127_14860)"/>
<g style="mix-blend-mode:multiply" opacity="0.5">
<path d="M3.19775 12.514C4.21994 15.2791 6.87982 17.2502 10.0001 17.2502C11.94 17.2502 13.702 16.4884 15.0031 15.2474C13.7235 15.8892 12.279 16.2502 10.7501 16.2502C7.67078 16.2502 4.93367 14.7852 3.19775 12.514Z" fill="url(#paint2_linear_1127_14860)"/>
</g>
<path d="M9.8488 4.61267C9.89637 4.46261 10.1035 4.46261 10.1511 4.61266L11.2818 8.1782C11.303 8.24531 11.3641 8.29074 11.4329 8.29074L15.0908 8.29074C15.2447 8.29074 15.3087 8.49265 15.1842 8.58539L12.2246 10.7889C12.1689 10.8304 12.1456 10.9039 12.1669 10.971L13.2975 14.5362C13.3451 14.6862 13.1775 14.811 13.0529 14.7183L10.0933 12.5149C10.0376 12.4734 9.96222 12.4734 9.90652 12.5149L6.94706 14.7183C6.8225 14.811 6.65492 14.6862 6.7025 14.5362L7.833 10.971C7.85428 10.9039 7.83097 10.8304 7.77527 10.7889L4.81582 8.58538C4.69126 8.49264 4.75527 8.29074 4.90923 8.29074L8.56726 8.29074C8.63611 8.29074 8.69713 8.2453 8.71841 8.17819L9.8488 4.61267Z" fill="#7B92A6"/>
<path fill-rule="evenodd" clip-rule="evenodd" d="M8.71835 8.17807C8.69707 8.24518 8.63605 8.29062 8.5672 8.29062L4.90917 8.29062C4.75522 8.29062 4.6912 8.49252 4.81576 8.58526L7.77521 10.7888C7.83091 10.8303 7.85422 10.9038 7.83294 10.9709L6.70244 14.536C6.65486 14.6861 6.82244 14.8109 6.947 14.7182L9.90646 12.5148C9.96216 12.4733 10.0376 12.4733 10.0933 12.5148L13.0529 14.7182C13.1774 14.8109 13.345 14.6861 13.2974 14.536L12.1668 10.9709C12.1455 10.9038 12.1688 10.8303 12.2245 10.7888L15.1841 8.58526C15.3087 8.49252 15.2447 8.29062 15.0907 8.29062H11.4329C11.364 8.29062 11.303 8.24518 11.2817 8.17808L10.151 4.61254C10.1035 4.46248 9.89631 4.46249 9.84874 4.61255L8.71835 8.17807ZM11.6834 7.79062L10.6276 4.4614C10.4326 3.84618 9.56716 3.84621 9.37212 4.46144L8.31666 7.79062L4.90917 7.79062C4.24636 7.79062 4.02861 8.62255 4.51715 8.9863L7.28437 11.0467L6.22583 14.3849C6.04541 14.9539 6.6949 15.5292 7.24559 15.1192L9.99988 13.0686L12.7543 15.1192C13.305 15.5292 13.9545 14.9539 13.774 14.3849L12.7154 11.0467L15.4827 8.98631C15.9713 8.62256 15.7535 7.79062 15.0907 7.79062L11.6834 7.79062Z" fill="white"/>
<path d="M2.40308 5.9763C2.2183 5.85847 1.97164 5.92252 1.87705 6.12021C1.69861 6.4931 1.5451 6.8802 1.41867 7.27934C1.34375 7.51587 1.52533 7.75011 1.77344 7.75011C1.94335 7.75011 2.0917 7.63694 2.14365 7.47517C2.25435 7.13044 2.38711 6.7956 2.54027 6.4723C2.62408 6.29538 2.56814 6.08155 2.40308 5.9763Z" fill="#D2E5F2"/>
<path d="M4.25125 3.5646C4.3886 3.72177 4.62737 3.73576 4.78912 3.60383C5.8841 2.71068 7.21273 2.09311 8.66925 1.85689C8.85748 1.82636 9.0001 1.66665 9.0001 1.47595C9.0001 1.25137 8.80471 1.07597 8.58289 1.11105C6.96857 1.3664 5.49702 2.05094 4.28879 3.04412C4.1301 3.17458 4.11607 3.40991 4.25125 3.5646Z" fill="#D2E5F2"/>
<path d="M14.3549 14.8196C15.1727 14.6907 15.9401 15.2492 16.069 16.067C15.9401 15.2492 16.4986 14.4818 17.3164 14.353C16.4986 14.4818 15.7312 13.9233 15.6023 13.1055C15.7312 13.9233 15.1727 14.6907 14.3549 14.8196Z" fill="white"/>
<path d="M12.5975 4.9008C13.8156 4.70887 14.9586 5.54072 15.1506 6.75876C14.9586 5.54072 15.7905 4.39768 17.0085 4.20574C15.7905 4.39768 14.6474 3.56583 14.4555 2.34778C14.6474 3.56583 13.8156 4.70887 12.5975 4.9008Z" fill="white"/>
<defs>
<linearGradient id="paint0_linear_1127_14860" x1="10" y1="0" x2="10" y2="20" gradientUnits="userSpaceOnUse">
<stop stop-color="#BCD4E7"/>
<stop offset="1" stop-color="#83A2C3"/>
</linearGradient>
<linearGradient id="paint1_linear_1127_14860" x1="10" y1="2.75" x2="10" y2="17.25" gradientUnits="userSpaceOnUse">
<stop stop-color="#E8F0F7"/>
<stop offset="1" stop-color="#C6D8E9"/>
</linearGradient>
<linearGradient id="paint2_linear_1127_14860" x1="10.0001" y1="2.75024" x2="10.0001" y2="17.2502" gradientUnits="userSpaceOnUse">
<stop stop-color="#E8F0F7"/>
<stop offset="1" stop-color="#C6D8E9"/>
</linearGradient>
</defs>
</svg>
