<svg width="368" height="414" viewBox="0 0 368 414" fill="none" xmlns="http://www.w3.org/2000/svg">
<g opacity="0.35">
<path d="M318.636 144.577L337.064 131.423L354.709 144.688L347.897 123.063L365.989 110.467L343.318 110.244L336.84 89.1763L329.693 110.579L307.58 110.244L325.784 123.732L318.636 144.577Z" fill="white"/>
<path d="M273.294 24.8579L266.146 46.2602L244.033 45.9258L262.237 59.4136L255.09 80.2586L273.517 67.1051L291.163 80.37L284.35 58.7448L302.442 46.0372L279.771 45.9258L273.294 24.8579Z" fill="white"/>
<path d="M183.949 0L176.802 21.4023L154.689 21.0678L172.893 34.5557L165.745 55.4006L184.173 42.2472L201.93 55.5121L195.006 33.8869L213.098 21.2908L190.427 21.0678L183.949 0Z" fill="white"/>
<path d="M95.4985 23.8545L88.3509 45.3682L66.3499 45.0338L84.5538 58.4102L77.4062 79.2551L95.8335 66.2131L113.479 79.3666L106.667 57.8529L124.759 45.1453L102.088 44.9223L95.4985 23.8545Z" fill="white"/>
<path d="M29.2715 88.2842L22.0123 109.686L0.0112305 109.352L18.2152 122.84L11.0676 143.685L29.4949 130.531L47.1404 143.796L40.3279 122.171L58.4202 109.463L35.749 109.352L29.2715 88.2842Z" fill="white"/>
<path d="M35.749 289.488L29.2715 268.42L22.0123 289.822L0.0112305 289.488L18.2152 302.976L11.0676 323.821L29.4949 310.667L47.1404 323.932L40.3279 302.307L58.4202 289.711L35.749 289.488Z" fill="white"/>
<path d="M100.189 355.701L93.7113 334.633L86.5637 356.036L64.4509 355.701L82.6549 369.189L75.5073 390.034L93.9346 376.88L111.58 390.145L104.768 368.52L122.86 355.813L100.189 355.701Z" fill="white"/>
<path d="M189.533 379.556L183.056 358.488L175.908 380.002L153.796 379.556L172 393.044L164.852 413.888L183.279 400.735L200.925 414L194.112 392.486L212.205 379.779L189.533 379.556Z" fill="white"/>
<path d="M278.878 355.701L272.4 334.633L265.253 356.036L243.14 355.701L261.344 369.189L254.197 390.034L272.624 376.88L290.269 390.145L283.457 368.52L301.549 355.813L278.878 355.701Z" fill="white"/>
<path d="M345.216 289.488L338.739 268.42L331.48 289.822L309.479 289.488L327.682 302.976L320.535 323.821L338.962 310.667L356.608 323.932L349.795 302.307L367.887 289.711L345.216 289.488Z" fill="white"/>
</g>
</svg>
